<?xml version="1.0" encoding="UTF-8"?>
<!DOCTYPE svg PUBLIC "-//W3C//DTD SVG 1.1//EN" "http://www.w3.org/Graphics/SVG/1.1/DTD/svg11.dtd">
<!-- Creator: CorelDRAW X8 -->
<svg xmlns="http://www.w3.org/2000/svg" xml:space="preserve" width="7.0305in" height="4.52317in" version="1.1" style="shape-rendering:geometricPrecision; text-rendering:geometricPrecision; image-rendering:optimizeQuality; fill-rule:evenodd; clip-rule:evenodd"
viewBox="0 0 5070 3262"
 xmlns:xlink="http://www.w3.org/1999/xlink">
 <defs>
  <style type="text/css">
   <![CDATA[
    .str0 {stroke:black;stroke-width:150.246}
    .fil0 {fill:none}
    .fil1 {fill:black;fill-rule:nonzero}
   ]]>
  </style>
 </defs>
 <g id="Layer_x0020_1">
  <metadata id="CorelCorpID_0Corel-Layer"/>
  <path class="fil0 str0" d="M799 75l3472 0c398,0 724,326 724,724l0 1664c0,398 -326,724 -724,724l-3472 0c-398,0 -724,-326 -724,-724l0 -1664c0,-398 326,-724 724,-724z"/>
  <path class="fil1" d="M1164 2189l0 -470 -409 -646 264 0 264 442 257 -442 259 0 -409 648 0 468 -226 0zm634 -298l0 -213 421 0 0 213 -421 0zm546 298l0 -1116 767 0 0 188 -541 0 0 266 468 0 0 188 -468 0 0 474 -226 0zm839 0l385 -582 -349 -534 263 0 220 332 220 -332 264 0 -351 534 385 582 -271 0 -247 -378 -248 378 -271 0z"/>
 </g>
</svg>
