<?xml version="1.0" encoding="UTF-8"?>
<!DOCTYPE svg PUBLIC "-//W3C//DTD SVG 1.1//EN" "http://www.w3.org/Graphics/SVG/1.1/DTD/svg11.dtd">
<!-- Creator: CorelDRAW X8 -->
<svg xmlns="http://www.w3.org/2000/svg" xml:space="preserve" width="14.2909in" height="4.52317in" version="1.1" style="shape-rendering:geometricPrecision; text-rendering:geometricPrecision; image-rendering:optimizeQuality; fill-rule:evenodd; clip-rule:evenodd"
viewBox="0 0 20950 6631"
 xmlns:xlink="http://www.w3.org/1999/xlink">
 <defs>
  <style type="text/css">
   <![CDATA[
    .str0 {stroke:black;stroke-width:305.404}
    .fil0 {fill:none}
    .fil1 {fill:black;fill-rule:nonzero}
   ]]>
  </style>
 </defs>
 <g id="Layer_x0020_1">
  <metadata id="CorelCorpID_0Corel-Layer"/>
  <path class="fil0 str0" d="M1625 153l17700 0c810,0 1472,662 1472,1472l0 3381c0,810 -662,1472 -1472,1472l-17700 0c-810,0 -1472,-662 -1472,-1472l0 -3381c0,-810 662,-1472 1472,-1472z"/>
  <path class="fil1" d="M2082 4450l-533 -2269 472 0 337 1558 415 -1558 546 0 396 1585 345 -1585 461 0 -546 2269 -491 0 -447 -1697 -451 1697 -504 0zm3104 -2269l0 841c141,-168 310,-252 506,-252 101,0 192,19 273,56 80,37 141,84 182,142 41,58 69,122 84,192 16,70 23,179 23,326l0 964 -434 0 0 -868c0,-172 -9,-281 -25,-327 -17,-47 -46,-84 -89,-111 -42,-27 -95,-41 -159,-41 -73,0 -138,17 -195,53 -58,35 -99,87 -126,158 -27,70 -40,175 -40,313l0 823 -434 0 0 -2269 434 0zm1299 624l462 0 395 1167 385 -1167 450 0 -580 1583 -105 286c-38,95 -75,168 -109,219 -35,50 -75,91 -120,122 -45,32 -100,56 -166,74 -66,17 -140,26 -223,26 -83,0 -166,-9 -247,-26l-38 -339c68,13 130,20 185,20 102,0 177,-30 225,-90 49,-59 86,-135 112,-227l-626 -1648zm2855 1645l0 -2269 1679 0 0 383 -1220 0 0 504 1135 0 0 383 -1135 0 0 615 1265 0 0 384 -1724 0zm1919 -1645l241 0 0 -124c0,-138 15,-242 45,-310 29,-69 83,-124 162,-167 79,-43 179,-64 299,-64 124,0 245,18 364,55l-58 302c-70,-16 -136,-25 -200,-25 -63,0 -108,15 -136,45 -27,29 -40,86 -40,171l0 117 542 0 0 -124c0,-138 15,-242 44,-310 30,-69 84,-124 163,-167 79,-43 178,-64 299,-64 124,0 245,18 364,55l-59 302c-69,-16 -136,-25 -199,-25 -63,0 -108,15 -136,45 -27,29 -41,86 -41,171l0 117 325 0 0 342 -325 0 0 1303 -435 0 0 -1303 -542 0 0 1303 -436 0 0 -1303 -241 0 0 -342zm3175 1125l434 73c-55,159 -143,280 -263,363 -121,83 -271,125 -451,125 -286,0 -498,-94 -635,-281 -108,-150 -162,-339 -162,-567 0,-273 71,-487 213,-641 142,-155 322,-232 540,-232 244,0 437,81 578,243 141,161 209,409 202,743l-1086 0c3,129 38,229 105,301 66,72 150,107 249,107 68,0 125,-18 171,-55 46,-37 81,-97 105,-179zm25 -440c-3,-127 -35,-223 -97,-288 -62,-66 -136,-99 -225,-99 -95,0 -173,35 -235,104 -61,69 -92,164 -91,283l648 0zm2219 -197l-428 76c-14,-85 -47,-149 -98,-192 -51,-43 -117,-65 -198,-65 -109,0 -195,38 -260,113 -64,75 -96,200 -96,376 0,195 32,333 98,414 65,81 153,121 263,121 82,0 150,-24 202,-71 53,-47 90,-128 112,-243l427 73c-44,197 -129,345 -255,445 -125,101 -294,151 -506,151 -239,0 -431,-76 -574,-228 -143,-152 -214,-362 -214,-631 0,-272 72,-483 215,-635 143,-151 337,-227 581,-227 200,0 359,44 477,130 118,86 202,217 254,393zm1081 -488l0 345 -298 0 0 666c0,136 3,214 9,237 6,22 18,40 39,55 20,14 44,22 73,22 41,0 99,-14 176,-42l36 338c-101,43 -215,65 -343,65 -78,0 -148,-13 -211,-40 -63,-26 -109,-60 -138,-102 -29,-42 -49,-99 -61,-171 -9,-51 -14,-153 -14,-308l0 -720 -199 0 0 -345 199 0 0 -326 434 -257 0 583 298 0zm149 1182l437 -67c19,84 56,148 113,192 57,43 137,65 239,65 112,0 197,-20 254,-62 38,-29 57,-68 57,-116 0,-33 -11,-61 -31,-82 -22,-21 -71,-40 -146,-58 -351,-77 -573,-148 -667,-212 -131,-89 -196,-213 -196,-371 0,-143 57,-263 169,-360 113,-97 287,-146 523,-146 225,0 393,37 502,111 109,74 185,182 226,327l-409 76c-17,-65 -51,-115 -100,-149 -49,-34 -120,-51 -211,-51 -115,0 -197,16 -248,48 -33,23 -49,52 -49,88 0,31 14,58 43,79 40,29 175,70 408,123 232,53 394,117 486,194 92,77 137,185 137,323 0,151 -63,281 -189,389 -126,108 -312,163 -559,163 -224,0 -402,-46 -533,-136 -130,-90 -216,-213 -256,-368z"/>
 </g>
</svg>
